<?xml version="1.0" encoding="utf-8"?>
<!-- Generator: Adobe Illustrator 19.0.0, SVG Export Plug-In . SVG Version: 6.00 Build 0)  -->
<svg version="1.1" id="Layer_1" xmlns="http://www.w3.org/2000/svg" xmlns:xlink="http://www.w3.org/1999/xlink" x="0px" y="0px"
	 viewBox="0 0 610 230" style="enable-background:new 0 0 610 230;" xml:space="preserve">
<path id="XMLID_92_" d="M98.6,166.4L91.1,143H59.4l-7.8,23.4H32.7L67,71.7h16.2l34.3,94.7H98.6z M75.2,93.3l-10.9,34.3h22L75.2,93.3
	z M168.6,166.4v-11.2c-8,8.9-14.6,12.3-23.1,12.3c-12.1,0-18.1-6.2-18.1-18.8V99.6h17.2v42.9c0,8.2,1.4,11.3,5.5,11.3
	c3.7,0,8.8-3.7,16.2-11.6l2.3-2.4V99.6h17.2v66.7H168.6z M249.7,168.3c-7.5,0-12.5-5.9-12.5-14.5v-43.3h-10.9v-6.3l10.9-2.7V82.4
	H248v18.9h17.2v9H248v37l0.1,2.9c0.1,2,0.1,3.3,0.3,4c0.1,2.2,1.4,3.2,3.7,3.2c2.7,0,4.9-1.1,9.5-4.6l4.5,7.2
	C258.4,166.4,254.9,168.3,249.7,168.3z M322.9,166.4v-46.1c0-4.3-0.1-5.7-1-7.6c-1-2.2-3.4-3.4-6.5-3.4c-6.7,0-13.8,4.9-25,17.4
	v39.8h-10.8V61.7h10.8V115c4.4-5,5.6-6.3,8.8-8.9c5-4.2,11.3-6.5,17.5-6.5c11.5,0,17.1,5.9,17.1,18.1v48.7H322.9z M383.8,168.3
	c-17.7,0-32.2-15.6-32.2-34.3c0-18.8,14.5-34.3,32.2-34.3c17.5,0,32,15.5,32,34.3C415.8,152.6,401.3,168.3,383.8,168.3z
	 M383.8,109.3c-11.5,0-20.4,10.9-20.4,24.7s8.9,24.7,20.4,24.7c11.3,0,20.2-10.9,20.2-24.7S395.1,109.3,383.8,109.3z M465,113.1
	c-2.2-1.9-3.3-2.6-4.6-2.6c-4,0-9.2,5.9-15.4,17.1v38.8h-10.8v-65h10.8v11.8c8-10.3,12.1-13.5,16.9-13.5c2.4,0,5.5,1.6,8.3,4.4
	L465,113.1z M487.8,132.9c0,15.8,8,25.4,21.2,25.4c5.7,0,9.9-1.6,16.9-6.5l4.3,8.5c-9.6,6-15.1,7.9-23.5,7.9
	c-18.1,0-30.3-13.8-30.3-34.3c0-20.7,12.2-34.3,30.7-34.3c15.2,0,25.1,10.8,25.1,27v6.3H487.8z M506.5,109.4
	c-9,0-15.4,5.5-17.8,15.5h31.9C520.4,114.9,515.4,109.4,506.5,109.4z M596.1,168.3c-8.9-0.6-12.1-2.9-12.6-9c-3.3,2.9-4.7,4-6.9,5.2
	c-4,2.3-9.2,3.7-13.8,3.7c-10.5,0-17.4-6.7-17.4-17.1c0-9.5,5-15.8,14.5-18.1l22.5-5.3v-11.8c0-5.3-4-8-12.3-8
	c-6.7,0-9.9,1.9-9.9,5.6c0,0.7,0.1,1.3,0.6,2.4l-10.9,2.3c-1-1.7-1.1-2.4-1.1-4c0-8.6,9.5-14.5,23.4-14.5c13.1,0,21.2,6.2,21.2,16.2
	V151v4.7c0.3,1.7,2,2.9,5.3,3.4L596.1,168.3z M582.4,136.7L558,143c-1.6,3-1.9,4.4-1.9,7c0,5.2,3.4,8.5,8.8,8.5
	c4.9,0,8.2-1.6,17.5-8.3V136.7z M200.1,33.9v179.2H23.2V35.6l183.4-18.8l0.3,0L205.8,5L11.7,24.9l-0.3,0V225H212V33.9H200.1z"/>
</svg>
